<svg width="15" height="15" viewBox="0 0 15 15" fill="none" xmlns="http://www.w3.org/2000/svg">
<path d="M8.50224 10.5664C8.3489 10.5807 8.19494 10.5461 8.06246 10.4676C7.96566 10.3682 7.91926 10.2302 7.93634 10.0926C7.93991 9.97796 7.95359 9.86387 7.97724 9.75167C8.00012 9.62294 8.02968 9.4955 8.06586 9.36984L8.46813 7.98574C8.50962 7.84913 8.53704 7.70862 8.54996 7.56641C8.54996 7.41301 8.57041 7.30731 8.57041 7.24596C8.57896 6.97254 8.46222 6.71015 8.25336 6.53346C7.99646 6.33624 7.67653 6.23929 7.35336 6.26074C7.12177 6.26423 6.89196 6.30214 6.67153 6.37324C6.43063 6.44824 6.17721 6.53801 5.91131 6.64257L5.79541 7.09257C5.87381 7.06529 5.96929 7.03462 6.07836 7.00051C6.18242 6.96969 6.29029 6.95361 6.39881 6.95279C6.55104 6.9363 6.70426 6.97368 6.83176 7.05846C6.91836 7.16179 6.95899 7.29603 6.94426 7.43007C6.94388 7.5447 6.93131 7.65899 6.90676 7.77096C6.88288 7.89029 6.85221 8.01641 6.81471 8.14936L6.40903 9.54026C6.37634 9.66955 6.35018 9.80039 6.33064 9.93231C6.3147 10.0453 6.30673 10.1592 6.30676 10.2732C6.30509 10.5485 6.43098 10.8091 6.64766 10.9789C6.90852 11.1792 7.23301 11.2785 7.56128 11.2584C7.79243 11.2632 8.02279 11.2298 8.24311 11.1596C8.43629 11.0936 8.69425 10.9993 9.01698 10.8766L9.12608 10.4471C9.03866 10.4833 8.94863 10.5129 8.85676 10.5357C8.74057 10.5622 8.62127 10.5725 8.50224 10.5664Z" fill="#212121"/>
<path d="M8.92859 4.00599C8.74305 3.8356 8.4986 3.74393 8.24676 3.75031C7.99507 3.74463 7.75085 3.83621 7.56494 4.00599C7.22415 4.29983 7.1861 4.81432 7.47998 5.15513C7.50617 5.18551 7.53456 5.2139 7.56494 5.24009C7.95318 5.58734 8.54035 5.58734 8.92856 5.24009C9.26934 4.94334 9.30505 4.42654 9.0083 4.08576C8.98364 4.05737 8.95698 4.03071 8.92859 4.00599Z" fill="#212121"/>
<path d="M7.5 0C3.35786 0 0 3.35786 0 7.5C0 11.6421 3.35786 15 7.5 15C11.6421 15 15 11.6421 15 7.5C15 3.35786 11.6421 0 7.5 0ZM7.5 14.3182C3.73441 14.3182 0.681826 11.2656 0.681826 7.5C0.681826 3.73441 3.73441 0.681826 7.5 0.681826C11.2656 0.681826 14.3182 3.73441 14.3182 7.5C14.3182 11.2656 11.2656 14.3182 7.5 14.3182Z" fill="#212121"/>
</svg>
